<?xml version="1.0" encoding="UTF-8" standalone="no" ?>
<!DOCTYPE svg PUBLIC "-//W3C//DTD SVG 1.1//EN" "http://www.w3.org/Graphics/SVG/1.1/DTD/svg11.dtd">
<svg xmlns="http://www.w3.org/2000/svg" xmlns:xlink="http://www.w3.org/1999/xlink" version="1.1" width="1280" height="1024" viewBox="0 0 1280 1024" xml:space="preserve">
<desc>Created with Fabric.js 4.4.0</desc>
<defs>
</defs>
<g transform="matrix(1 0 0 1 640 512)" id="background-logo"  >
<rect style="stroke: none; stroke-width: 0; stroke-dasharray: none; stroke-linecap: butt; stroke-dashoffset: 0; stroke-linejoin: miter; stroke-miterlimit: 4; fill: rgb(255,255,255); fill-opacity: 0; fill-rule: nonzero; opacity: 1;"  paint-order="stroke"  x="-640" y="-512" rx="0" ry="0" width="1280" height="1024" />
</g>
<g transform="matrix(1.9211538461538462 0 0 1.9211538461538462 640 407.994809921641)" id="logo-logo"  >
<g style=""  paint-order="stroke"   >
		<g transform="matrix(0.9404096578767832 0 0 0.9404096578767832 20.103430335101848 27.29202656856836)"  >
<path style="stroke: none; stroke-width: 1; stroke-dasharray: none; stroke-linecap: butt; stroke-dashoffset: 0; stroke-linejoin: miter; stroke-miterlimit: 4; fill: rgb(3,42,68); fill-rule: nonzero; opacity: 1;"  paint-order="stroke"  transform=" translate(-319.0273056, -449.97143545)" d="M 398.9996643 398.1953735 L 360.2861023 517.3403930000001 L 239.0549469 517.3403930000001 C 242.1299591 504.43383780000005 253.9619446 486.1194457000001 269.411377 471.92419430000007 L 269.411377 496.94903560000006 L 286.54031380000004 496.94903560000006 L 286.54031380000004 452.64993280000004 C 289.82540900000004 442.90249630000005 300.8903199 432.03167720000005 308.75967420000006 430.89181510000003 L 308.75967420000006 496.9490356 L 325.8886110000001 496.9490356 L 325.8886110000001 416.1790466 C 330.2997438000001 406.26052849999996 341.26760880000006 399.1281128 348.1079714000001 399.6510009 L 348.1079714000001 488.83734119999997 L 357.7006533000001 459.3144835 L 375.02841210000014 405.985504 L 357.7387698000001 393.42230209999997 C 362.9121402000001 386.99551379999997 370.3858035000001 383.59838849999994 377.5376895000001 382.60247789999994 L 398.9996643 398.1953735 z" stroke-linecap="round" />
</g>
		<g transform="matrix(0.9404096578767832 0 0 0.9404096578767832 8.111779467230349 20.515282744769024)"  >
<path style="stroke: none; stroke-width: 1; stroke-dasharray: none; stroke-linecap: butt; stroke-dashoffset: 0; stroke-linejoin: miter; stroke-miterlimit: 4; fill: rgb(19,59,91); fill-rule: nonzero; opacity: 1;"  paint-order="stroke"  transform=" translate(-306.2757874, -442.76527400000003)" d="M 269.411377 453.9151306 L 269.411377 471.9241943 C 255.7733765 488.350708 245.05935670000002 504.2525024 239.0549469 517.3403930000001 L 235.01388550000001 517.3403930000001 C 235.72914120000002 507.6024780000001 239.4227448 497.6181945000001 247.19201660000002 488.8373412000001 C 251.4269867 475.9759521 258.3525085 464.7796936 269.411377 453.9151306 z M 357.7006531 368.190155 L 357.7006531 393.3969116 L 357.7387696 393.4223022 C 364.3948365 389.3262329 371.0212403 385.6829528 377.5376893 382.602478 L 357.7006531 368.190155 z M 286.5403137 431.3657532 L 286.5403137 452.64993289999995 C 293.55603030000003 445.2533875 301.0160827 437.9329529 308.7596741 430.89181519999994 L 308.7596741 406.26052859999993 C 301.1606445 407.7195129 291.2643738 418.8253479 286.5403137 431.3657532 z M 325.8886108 389.690155 L 325.8886108 416.1790466 C 333.19631949999996 410.2634887 340.6436157 404.7033386 348.10797119999995 399.6510009 L 348.10797119999995 371.8122863 C 340.8556824 373.4124756 330.8494568 378.2506409 325.8886108 389.690155 z" stroke-linecap="round" />
</g>
		<g transform="matrix(0.9404096578767832 0 0 0.9404096578767832 -23.92951984847059 -2.842171e-14)"  >
<path style="stroke: none; stroke-width: 1; stroke-dasharray: none; stroke-linecap: butt; stroke-dashoffset: 0; stroke-linejoin: miter; stroke-miterlimit: 4; fill: rgb(47,90,132); fill-rule: nonzero; opacity: 1;"  paint-order="stroke"  transform=" translate(-272.2041474, -420.95001235)" d="M 318.352356 358.8894043 L 318.352356 358.8851624 L 314.2774659 361.8471985 L 297.6478883 349.766388 L 220.27146919999996 405.98550420000004 L 247.19201669999995 488.8373414 L 247.19201669999995 422.4500733 L 269.4113771 406.31130989999997 L 269.4113771 453.91513069999996 C 253.01451129999998 477.09506229999994 240.52748119999998 499.93219 235.01388559999998 517.3403932 L 196.30032359999998 398.1953737 L 297.6478883 324.5596315 L 331.6264344 349.2459413 L 318.352356 358.8894043 z M 339.7889099 355.1741943 L 325.88861080000004 365.2746887 L 325.88861080000004 389.690155 C 333.22592160000005 383.0975647 340.67752070000006 377.067749 348.10797120000007 371.8122863 L 348.10797120000007 349.13168329999996 L 339.7889099 355.1741943 z M 286.5403137 393.8666077 L 286.5403137 431.3657532 C 293.5856323 422.7166443 301.0457458 414.25799559999996 308.7596741 406.2605286 L 308.7596741 377.71936039999997 L 286.5403137 393.8666077 z" stroke-linecap="round" />
</g>
</g>
</g>
</svg>